PathFileType	4	(X/Y/Z)	./resultDataOpenSim/trcMotMarkerGrf/sub09/qtm-13-06.trc
DataRate	CameraRate	NumFrames	NumMarkers	Units	OrigDataRate	OrigDataStartFrame	OrigNumFrames
250.000000	250.000000	10	24	m	250.000000	299	478
Frame#	Time	L.Toe.Tip			R.Toe.Tip			L.Ankle.Lat			R.Ankle.Lat			L.Ankle.Med			R.Ankle.Med			L.Heel			R.Heel			L.Knee.Lat			R.Knee.Lat			L.Knee.Med			R.Knee.Med			L.Thigh.Upper			R.Thigh.Upper			L.ASIS			R.ASIS			V.Sacral			L.Acromium			R.Acromium			C7			L.Elbow			R.Elbow			L.Wrist.Lat			R.Wrist.Lat
		X1	Y1	Z1	X2	Y2	Z2	X3	Y3	Z3	X4	Y4	Z4	X5	Y5	Z5	X6	Y6	Z6	X7	Y7	Z7	X8	Y8	Z8	X9	Y9	Z9	X10	Y10	Z10	X11	Y11	Z11	X12	Y12	Z12	X13	Y13	Z13	X14	Y14	Z14	X15	Y15	Z15	X16	Y16	Z16	X17	Y17	Z17	X18	Y18	Z18	X19	Y19	Z19	X20	Y20	Z20	X21	Y21	Z21	X22	Y22	Z22	X23	Y23	Z23	X24	Y24	Z24

299	1.192	0.20126062	-0.0042520439	-0.0091016779	1.1141594	0.041653869	0.063298088	0.13351935	0.12565694	-0.081998785	0.96651945	0.05386211	0.10704868	0.16333141	0.13103403	0.011478649	0.96693046	0.091351073	0.014835748	0.064057106	0.15367743	-0.039125915	0.89637617	0.031735859	0.063063989	0.44518479	0.41435491	-0.12001994	0.93155677	0.51068759	0.15705668	0.45091412	0.40505009	0.0045020635	0.91454031	0.49277454	0.032207436	0.60694737	0.79030769	-0.14706615	0.67094257	0.81873128	0.22338353	0.72165541	0.86148016	-0.10138606	0.74002329	0.89483029	0.1376202	0.56836537	0.94099624	0.025162973	0.76127142	1.3318016	-0.12889328	0.72269701	1.3330881	0.20184718	0.67698476	1.3864191	0.03190495	0.62555147	0.97868235	-0.20962551	0.54221793	1.0224875	0.27054613	0.86012323	0.83918073	-0.19169971	0.61244172	0.76735258	0.34218879
300	1.196	0.20314728	-0.0030214607	-0.0099383497	1.114541	0.041354898	0.06315727	0.13957639	0.12915576	-0.083781152	0.9667733	0.053923383	0.1067001	0.16969631	0.13393189	0.0096030845	0.96721069	0.091331648	0.014442134	0.071098123	0.15907921	-0.040882424	0.89653326	0.031798915	0.062926882	0.45609445	0.4126936	-0.12137691	0.93893218	0.51076372	0.15692664	0.46181349	0.40251337	0.0031082113	0.92217936	0.49388714	0.0311822	0.61536077	0.78910112	-0.145496	0.67864246	0.81961446	0.22369071	0.72908307	0.86138709	-0.100322	0.74732171	0.8958198	0.13816409	0.57586299	0.94108019	0.025391469	0.76916468	1.3316755	-0.12870172	0.7299923	1.3331665	0.20194286	0.6843863	1.3865944	0.031828444	0.63221294	0.97916236	-0.20946082	0.55007809	1.022074	0.27045559	0.86559541	0.83758151	-0.19145096	0.62098022	0.76711954	0.34224757
301	1.2	0.20527642	-0.0015975947	-0.010791092	1.1148302	0.041114757	0.062822123	0.14599454	0.13280993	-0.085400225	0.96701961	0.054043674	0.10635516	0.1763438	0.1369816	0.0079159619	0.96751594	0.091351848	0.01405077	0.078541433	0.16466506	-0.042594667	0.89665922	0.031852476	0.062792612	0.46719387	0.41100987	-0.12268955	0.94581559	0.5106352	0.15655517	0.47291719	0.39996848	0.0017928146	0.92927564	0.49468165	0.030185399	0.6233531	0.78821801	-0.14431327	0.68635194	0.82050295	0.22397837	0.73618745	0.86136708	-0.099505145	0.75454718	0.89671929	0.1386339	0.58318678	0.94129373	0.025681317	0.77701279	1.3316377	-0.12850671	0.7372329	1.3333463	0.20200692	0.69163533	1.3868692	0.031668801	0.63889006	0.97973595	-0.20932279	0.55790507	1.021728	0.2703668	0.87094798	0.83595294	-0.19120845	0.6292399	0.76685099	0.34209533
302	1.204	0.20767781	2.9846796e-05	-0.011655806	1.1150478	0.040915474	0.062293681	0.1527399	0.13655952	-0.086802043	0.96726485	0.054207049	0.10604455	0.18328338	0.14017363	0.0064218673	0.96783693	0.091363445	0.013661481	0.086380966	0.17040992	-0.044248143	0.8967552	0.031893451	0.062683089	0.47844829	0.40929738	-0.12393025	0.95219094	0.51038343	0.15575913	0.48423268	0.39747043	0.00055062541	0.93576646	0.49515471	0.029250225	0.63099511	0.78767738	-0.14367523	0.69403978	0.82138426	0.22426761	0.74298901	0.86145325	-0.0989283	0.76167478	0.89749698	0.13903164	0.59023369	0.94159697	0.026087219	0.78480211	1.3316924	-0.12830705	0.74441713	1.3336352	0.20204021	0.69875444	1.387225	0.031457524	0.64558709	0.98040124	-0.20921149	0.56569629	1.0214699	0.27028371	0.87616838	0.83430714	-0.19096708	0.63739923	0.76662689	0.34181501
303	1.208	0.210366	0.001863208	-0.012545804	1.1152152	0.040752784	0.061772014	0.1598209	0.14039816	-0.087995956	0.96749981	0.054364617	0.1057756	0.19052143	0.14350308	0.0051135533	0.96814957	0.091315766	0.013270548	0.094606596	0.17628157	-0.045819077	0.89682431	0.031922942	0.062582337	0.48990153	0.40756835	-0.12514358	0.95814974	0.5100306	0.15455381	0.4958493	0.39508956	-0.00066506131	0.94165931	0.49535135	0.028395414	0.63845183	0.78740527	-0.14343092	0.70169178	0.8222306	0.22457002	0.74957707	0.8616883	-0.098522115	0.76869362	0.89813726	0.13937001	0.59695269	0.94197221	0.02661575	0.79251153	1.3318439	-0.1281044	0.7515483	1.334033	0.20204592	0.70582741	1.3876365	0.031273684	0.65230588	0.98115624	-0.20912132	0.5734503	1.0213015	0.27021139	0.88128074	0.83265431	-0.19073752	0.6456943	0.76653904	0.34152265
304	1.212	0.21334156	0.0038854338	-0.013481913	1.1153464	0.040626618	0.061400209	0.1672883	0.14436291	-0.089053752	0.96770087	0.054482801	0.1055477	0.19806478	0.14695058	0.0039808111	0.96843171	0.091192018	0.012889754	0.10321229	0.18224759	-0.047281358	0.89687507	0.031945318	0.062475427	0.50159955	0.40584689	-0.12637178	0.96388146	0.50958539	0.15319679	0.50775776	0.39288628	-0.0018501199	0.94702853	0.49532858	0.027632925	0.64581764	0.78731957	-0.1433058	0.70929715	0.82300759	0.22488651	0.75603307	0.86208666	-0.098221477	0.77560253	0.89864408	0.13966521	0.60341415	0.94243341	0.027235897	0.80011216	1.3320922	-0.12790276	0.7586343	1.3345327	0.20202955	0.7129188	1.3880981	0.031175215	0.65903984	0.98199599	-0.2090417	0.58118029	1.0212209	0.27016362	0.88630702	0.8310011	-0.19053139	0.65422995	0.76662358	0.34127567
305	1.216	0.21660364	0.006072133	-0.014480522	1.1154512	0.0405287	0.061168431	0.17520026	0.14847905	-0.090051345	0.96785847	0.054562175	0.10536351	0.2059257	0.15048158	0.0030098484	0.96867315	0.091012646	0.012544971	0.11219313	0.18828565	-0.04861115	0.89691554	0.031963293	0.062371967	0.51353647	0.40413839	-0.12757568	0.96958698	0.50909644	0.15204581	0.51978292	0.39087895	-0.0029176284	0.95199207	0.49512932	0.026971569	0.65307156	0.78737043	-0.14307387	0.71683309	0.8236888	0.22521004	0.76240573	0.86263886	-0.097982677	0.78239972	0.89904337	0.13992986	0.60976832	0.94300735	0.027900003	0.80757709	1.3324328	-0.12770899	0.76568449	1.335127	0.2019976	0.72001969	1.3886262	0.031151906	0.66577786	0.98290899	-0.20896534	0.58889654	1.021245	0.27015319	0.89125187	0.82935625	-0.19035313	0.66299354	0.76687609	0.34107612
306	1.22	0.22016487	0.0084147347	-0.015543914	1.1155337	0.040446587	0.06101131	0.18359131	0.15274759	-0.091047933	0.96798219	0.054615878	0.10522278	0.2141145	0.15406495	0.0021819344	0.96887423	0.090806073	0.012256856	0.12153994	0.19438667	-0.049785309	0.8969473	0.031974246	0.062293026	0.52566386	0.40243423	-0.12865401	0.97531512	0.50861096	0.15126449	0.53176639	0.38904977	-0.0037876395	0.95667614	0.4947812	0.02640934	0.66015898	0.7875358	-0.14266888	0.72426317	0.82426667	0.22553236	0.76871823	0.86332925	-0.097776999	0.78908264	0.89937961	0.14017085	0.61612749	0.9437174	0.028569424	0.81489497	1.3328613	-0.12753392	0.77270208	1.3358132	0.201954	0.72708891	1.3892352	0.031173888	0.67251147	0.98388047	-0.20888993	0.59658075	1.0214038	0.27018288	0.89611402	0.82773115	-0.19020459	0.67200023	0.76731148	0.34093859
307	1.224	0.22405731	0.010931785	-0.016663307	1.1155918	0.040374915	0.060893739	0.19244796	0.1571576	-0.09206424	0.96807861	0.054647896	0.10511754	0.2226263	0.15769066	0.00147452	0.96904165	0.090589039	0.01202814	0.13123587	0.20054475	-0.050781475	0.89696577	0.03197422	0.062247348	0.53795398	0.40074464	-0.12954064	0.98094116	0.50813904	0.15075756	0.54374685	0.38737931	-0.0044841771	0.96118037	0.49430857	0.025926823	0.66706001	0.78781452	-0.14215033	0.73154767	0.82475349	0.22584776	0.77497987	0.86414335	-0.097588477	0.79565112	0.89970652	0.14039116	0.62246466	0.94457759	0.02924724	0.82206889	1.3333783	-0.12739335	0.77967702	1.3365929	0.20189988	0.73409899	1.3899306	0.031235977	0.6792341	0.98489876	-0.20881282	0.60419371	1.0217127	0.27024501	0.90089573	0.82613752	-0.19008704	0.6812841	0.76795683	0.34088405
308	1.228	0.22832645	0.013662671	-0.017830595	1.1156205	0.040317401	0.060804734	0.20169093	0.16167744	-0.093040138	0.96814513	0.054654454	0.10503433	0.23144266	0.16136947	0.0008662659	0.96918736	0.09037329	0.011846393	0.14125418	0.20674192	-0.051588519	0.89696383	0.031966515	0.062225912	0.55040477	0.39911089	-0.13024612	0.98629424	0.50768083	0.15034799	0.55583398	0.38587545	-0.0050739108	0.9655581	0.49374658	0.025492768	0.67377889	0.78823056	-0.14158584	0.73865333	0.82517328	0.22615138	0.78119775	0.86506731	-0.097411435	0.80210855	0.90007275	0.14059392	0.62858787	0.94559328	0.0299767	0.82909932	1.333987	-0.1272992	0.78659258	1.3374674	0.20183651	0.74102437	1.3907131	0.031324194	0.68593598	0.98595687	-0.20872619	0.61168654	1.0221638	0.27032028	0.90560296	0.82458465	-0.19000199	0.69073852	0.76877967	0.34085448
